<svg xmlns="http://www.w3.org/2000/svg" version="1.1" xmlns:xlink="http://www.w3.org/1999/xlink" xmlns:svgjs="http://svgjs.dev/svgjs" width="1000" height="623" viewBox="0 0 1000 623"><g transform="matrix(1,0,0,1,-0.6060606060606233,0.2522267206477409)"><svg viewBox="0 0 396 247" data-background-color="#ffffff" preserveAspectRatio="xMidYMid meet" height="623" width="1000" xmlns="http://www.w3.org/2000/svg" xmlns:xlink="http://www.w3.org/1999/xlink"><g id="tight-bounds" transform="matrix(1,0,0,1,0.2400000000000091,-0.09999999999999432)"><svg viewBox="0 0 395.52 247.2" height="247.2" width="395.52"><g><svg></svg></g><g><svg viewBox="0 0 395.52 247.2" height="247.2" width="395.52"><g transform="matrix(1,0,0,1,142.15635882352942,47.215199999999996)"><svg viewBox="0 0 111.20728235294116 152.7696" height="152.7696" width="111.20728235294116"><g><svg viewBox="0 0 111.20728235294116 152.7696" height="152.7696" width="111.20728235294116"><g><svg viewBox="0 0 111.20728235294116 152.7696" height="152.7696" width="111.20728235294116"><g><svg viewBox="0 0 111.20728235294116 152.7696" height="152.7696" width="111.20728235294116"><g id="textblocktransform"><svg viewBox="0 0 111.20728235294116 152.7696" height="152.7696" width="111.20728235294116" id="textblock"><g><svg viewBox="0 0 111.20728235294116 152.7696" height="152.7696" width="111.20728235294116"><g transform="matrix(1,0,0,1,0,0)"><svg width="111.20728235294116" viewBox="2.5999999046325684 -26.600000381469727 19.799999237060547 27.200000762939453" height="152.7696" data-palette-color="#ff0000"><path d="M12.85 0.6L12.85 0.6Q10.3 0.6 8.7-0.4 7.1-1.4 6.6-2.6L6.6-2.6 6.4-2.6 6.4 0 2.6 0 2.6-7.75 6.4-7.75 6.4-6.85Q6.4-4.75 7.7-3.55 9-2.35 11.9-2.35L11.9-2.35Q17.3-2.35 17.3-6.15L17.3-6.15Q17.3-9.1 13.4-10.05L13.4-10.05 10.7-10.7Q6.7-11.65 4.75-13.6 2.8-15.55 2.8-18.95L2.8-18.95Q2.8-22.6 5.25-24.6 7.7-26.6 11.75-26.6L11.75-26.6Q14.25-26.6 15.75-25.75 17.25-24.9 17.7-23.7L17.7-23.7 17.9-23.7 17.9-26 21.7-26 21.7-18.25 17.9-18.25 17.9-19.7Q17.9-23.65 12.55-23.65L12.55-23.65Q10.25-23.65 9.03-22.78 7.8-21.9 7.8-20.15L7.8-20.15Q7.8-17.05 11.8-16.05L11.8-16.05 14.35-15.45Q18.4-14.55 20.4-12.73 22.4-10.9 22.4-7.35L22.4-7.35Q22.4-3.75 19.83-1.58 17.25 0.6 12.85 0.6Z" opacity="1" transform="matrix(1,0,0,1,0,0)" fill="#ff0000" class="wordmark-text-0" data-fill-palette-color="primary" id="text-0"></path></svg></g></svg></g></svg></g></svg></g></svg></g></svg></g></svg></g><path d="M324.458 41.215L324.458 0 77.258 0 77.258 247.2 324.458 247.2 324.458 205.985 310.681 205.985 310.681 233.423 91.035 233.423 91.035 13.777 310.681 13.777 310.681 41.215Z" fill="#ff0000" stroke="transparent" data-fill-palette-color="primary"></path></svg></g><defs></defs></svg><rect width="395.52" height="247.2" fill="none" stroke="none" visibility="hidden"></rect></g></svg></g></svg>