<svg xmlns="http://www.w3.org/2000/svg" version="1.1" xmlns:xlink="http://www.w3.org/1999/xlink" xmlns:svgjs="http://svgjs.dev/svgjs" width="1000" height="1000" viewBox="0 0 1000 1000"><rect width="1000" height="1000" fill="#ffffff"></rect><g transform="matrix(0.7,0,0,0.7,149.57575757575756,282.1265587044535)"><svg viewBox="0 0 396 247" data-background-color="#ffffff" preserveAspectRatio="xMidYMid meet" height="623" width="1000" xmlns="http://www.w3.org/2000/svg" xmlns:xlink="http://www.w3.org/1999/xlink"><g id="tight-bounds" transform="matrix(1,0,0,1,0.2400000000000091,-0.09999999999999432)"><svg viewBox="0 0 395.52 247.2" height="247.2" width="395.52"><g><svg></svg></g><g><svg viewBox="0 0 395.52 247.2" height="247.2" width="395.52"><g><path xmlns="http://www.w3.org/2000/svg" d="M55.039 247.2l26.403-45.732 4.114 0-24.234 41.974h272.876l-24.234-41.974 4.114 0 26.403 45.732zM197.76 0l26.403 45.732-4.113 0-22.29-38.608-22.29 38.608-4.113 0z" fill="#3c2c32" fill-rule="nonzero" stroke="none" stroke-width="1" stroke-linecap="butt" stroke-linejoin="miter" stroke-miterlimit="10" stroke-dasharray="" stroke-dashoffset="0" font-family="none" font-weight="none" font-size="none" text-anchor="none" style="mix-blend-mode: normal" data-fill-palette-color="tertiary"></path></g><g transform="matrix(1,0,0,1,5.611985294117687,67.97999999999999)"><svg viewBox="0 0 384.2960294117646 111.24" height="111.24" width="384.2960294117646"><g><svg viewBox="0 0 384.2960294117646 111.24" height="111.24" width="384.2960294117646"><g><svg viewBox="0 0 384.2960294117646 111.24" height="111.24" width="384.2960294117646"><g><svg viewBox="0 0 384.2960294117646 111.24" height="111.24" width="384.2960294117646"><g id="textblocktransform"><svg viewBox="0 0 384.2960294117646 111.24" height="111.24" width="384.2960294117646" id="textblock"><g><svg viewBox="0 0 384.2960294117646 111.24" height="111.24" width="384.2960294117646"><g transform="matrix(1,0,0,1,0,0)"><svg width="384.2960294117646" viewBox="-2.649999976158142 -38.099998474121094 141.9399871826172 41.79999923706055" height="111.24" data-palette-color="#3c2c32"><path d="M8 0L0.35 0 0.35-1.05 1.7-1.45Q2.75-1.75 3.33-2.35 3.9-2.95 4.25-4L4.25-4 14.35-33.2 18.5-33.2 28.55-3.8Q28.95-2.7 29.45-2.13 29.95-1.55 31.05-1.2L31.05-1.2 31.8-1 31.8 0 19.1 0 19.1-1 19.95-1.25Q21.05-1.6 21.28-2.35 21.5-3.1 21.15-4.2L21.15-4.2 19.05-10.65 8-10.65 5.85-4.3Q5.5-3.2 5.65-2.5 5.8-1.8 6.9-1.4L6.9-1.4 8-1.05 8 0ZM13.7-27.15L8.5-12.1 18.6-12.1 13.7-27.15ZM45.2 0L33.6 0 33.6-0.95 34.35-1.2Q36.05-1.7 36.05-3.65L36.05-3.65 36.05-29.55Q36.05-30.55 35.65-31.08 35.25-31.6 34.25-31.85L34.25-31.85 33.6-32.05 33.6-33 42.35-35.1 43-34.65 42.8-27.6 42.8-3.65Q42.8-1.65 44.5-1.15L44.5-1.15 45.2-0.95 45.2 0ZM60.4 0L51.9 0 42.85-12.5 51.7-20.7Q52.35-21.25 52.45-21.93 52.55-22.6 51.6-22.85L51.6-22.85 50.8-23.05 50.8-24 58.6-24 58.6-23.05 57.15-22.7Q56.05-22.4 55.35-21.88 54.65-21.35 53.7-20.5L53.7-20.5 48.2-15.35 56.7-3.7Q57.5-2.65 58.15-2.08 58.8-1.5 59.9-1.1L59.9-1.1 60.4-0.95 60.4 0ZM69.35 0.7L69.35 0.7Q66.5 0.7 64.52-0.93 62.55-2.55 62.55-5.6L62.55-5.6Q62.55-8 64.87-10.03 67.2-12.05 72.2-13L72.2-13Q73.05-13.2 74.17-13.38 75.3-13.55 76.4-13.75L76.4-13.75 76.4-17.3Q76.4-20.7 75.55-22 74.7-23.3 72.85-23.3L72.85-23.3 72.7-23.3Q71.55-23.3 70.87-22.58 70.2-21.85 70-20.2L70-20.2 69.85-19.55Q69.7-17.55 68.8-16.63 67.9-15.7 66.55-15.7L66.55-15.7Q65.3-15.7 64.47-16.48 63.65-17.25 63.65-18.5L63.65-18.5Q63.65-20.55 65.05-21.95 66.45-23.35 68.77-24.05 71.1-24.75 73.8-24.75L73.8-24.75Q78.25-24.75 80.6-22.6 82.95-20.45 82.95-15.6L82.95-15.6 82.95-4.45Q82.95-2.3 85-2.3L85-2.3 86.15-2.3 86.65-1.75Q85.75-0.6 84.65 0.03 83.55 0.65 81.65 0.65L81.65 0.65Q79.5 0.65 78.22-0.38 76.95-1.4 76.55-3.1L76.55-3.1Q74.95-1.4 73.4-0.35 71.85 0.7 69.35 0.7ZM72.25-2.5L72.25-2.5Q73.25-2.5 74.15-2.95 75.05-3.4 76.4-4.45L76.4-4.45 76.4-12.45Q75.1-12.25 73.75-11.95L73.75-11.95Q71.6-11.45 70.27-10.1 68.95-8.75 68.95-6.45L68.95-6.45Q68.95-4.45 69.87-3.48 70.8-2.5 72.25-2.5ZM96.44 0.7L96.44 0.7Q94.04 0.7 92.12 0.18 90.19-0.35 88.44-1.3L88.44-1.3 88.44-7.2 89.79-7.2 91.29-4.35Q92.24-2.5 93.47-1.6 94.69-0.7 96.59-0.7L96.59-0.7Q98.94-0.7 100.34-1.73 101.74-2.75 101.74-4.5L101.74-4.5Q101.74-6.1 100.69-7.1 99.64-8.1 96.94-8.95L96.94-8.95 94.74-9.65Q91.79-10.55 90.07-12.38 88.34-14.2 88.34-16.95L88.34-16.95Q88.34-19.1 89.49-20.88 90.64-22.65 92.84-23.7 95.04-24.75 98.19-24.75L98.19-24.75Q100.24-24.75 101.97-24.28 103.69-23.8 105.34-22.95L105.34-22.95 105.04-17.6 103.74-17.6 102.19-20.45Q101.39-22.05 100.57-22.68 99.74-23.3 98.04-23.3L98.04-23.3Q96.24-23.3 94.87-22.38 93.49-21.45 93.49-19.8L93.49-19.8Q93.49-18.25 94.64-17.28 95.79-16.3 98.34-15.45L98.34-15.45 100.49-14.8Q104.14-13.65 105.69-11.75 107.24-9.85 107.24-7.2L107.24-7.2Q107.24-3.65 104.42-1.48 101.59 0.7 96.44 0.7ZM121.04 0L109.64 0 109.64-1 110.29-1.2Q112.09-1.75 112.09-3.7L112.09-3.7 112.09-29.45Q112.09-30.5 111.74-31.03 111.39-31.55 110.39-31.8L110.39-31.8 109.64-32 109.64-32.95 118.09-35.1 118.89-34.65 118.69-27.6 118.69-21.2Q120.44-22.65 122.52-23.7 124.59-24.75 126.99-24.75L126.99-24.75Q130.29-24.75 132.17-22.9 134.04-21.05 134.04-17.2L134.04-17.2 134.04-3.65Q134.04-2.65 134.44-2.05 134.84-1.45 135.84-1.15L135.84-1.15 136.29-1 136.29 0 124.89 0 124.89-1 125.49-1.2Q127.29-1.7 127.29-3.7L127.29-3.7 127.29-18.15Q127.29-20.2 126.59-21 125.89-21.8 124.14-21.8L124.14-21.8Q122.94-21.8 121.62-21.35 120.29-20.9 118.84-19.85L118.84-19.85 118.84-3.6Q118.84-2.6 119.24-2 119.64-1.4 120.59-1.15L120.59-1.15 121.04-1 121.04 0Z" opacity="1" transform="matrix(1,0,0,1,0,0)" fill="#3c2c32" class="wordmark-text-0" data-fill-palette-color="primary" id="text-0"></path></svg></g></svg></g></svg></g></svg></g></svg></g></svg></g></svg></g></svg></g><defs></defs></svg><rect width="395.52" height="247.2" fill="none" stroke="none" visibility="hidden"></rect></g></svg></g></svg>